<svg width="40px" height="40px" viewBox="0 0 40 39" version="1.1" xmlns="http://www.w3.org/2000/svg" xmlns:xlink="http://www.w3.org/1999/xlink">
    <defs>
        <path d="M39.377619,19.5525548 C39.377619,8.75346453 30.562381,0 19.6888095,0 C8.81446429,0 0,8.75346453 0,19.5525548 C0,29.3119262 7.20029762,37.4006776 16.6121429,38.8676572 L16.6121429,25.2045372 L11.6133333,25.2045372 L11.6133333,19.5525548 L16.6121429,19.5525548 L16.6121429,15.2445992 C16.6121429,10.3441652 19.5518452,7.63766869 24.0492262,7.63766869 C26.2035119,7.63766869 28.4568452,8.01959054 28.4568452,8.01959054 L28.4568452,12.8308838 L25.9736905,12.8308838 C23.5276786,12.8308838 22.7654762,14.3385914 22.7654762,15.8847217 L22.7654762,19.5525548 L28.2254762,19.5525548 L27.352619,25.2045372 L22.7654762,25.2045372 L22.7654762,38.8676572 C32.1773214,37.4006776 39.377619,29.3119262 39.377619,19.5525548" id="path-fb"/>
    </defs>
    <g id="Symbols" stroke="none" stroke-width="1" fill="none" fill-rule="evenodd">
        <g id="Footer-#18" transform="translate(-705.000000, -241.000000)">
            <g id="Group-25" transform="translate(705.000077, 241.000000)">
                <g id="Fill-16" transform="translate(0.000000, 0.056712)">
                    <mask id="mask-2" fill="white">
                        <use xlink:href="#path-fb"/>
                    </mask>
                    <use id="Mask" fill="#FEE29C" xlink:href="#path-fb" class="hover"/>
                </g>
            </g>
        </g>
    </g>
</svg>