<svg width="40px" height="40px" viewBox="0 0 40 40" version="1.1" xmlns="http://www.w3.org/2000/svg" xmlns:xlink="http://www.w3.org/1999/xlink">
    <title>Instagram</title>
    <g id="Symbols" stroke="none" stroke-width="1" fill="none" fill-rule="evenodd">
        <g id="Footer-#18" transform="translate(-818.000000, -241.000000)">
            <g id="Group-25" transform="translate(705.000077, 241.027050)">
                <g id="Group-18" transform="translate(113.583149, 0.000000)">
                    <path d="M39.377619,19.5525548 C39.377619,30.3508766 30.562381,39.1051096 19.6888095,39.1051096 C8.81446429,39.1051096 0,30.3508766 0,19.5525548 C0,8.75423299 8.81446429,0 19.6888095,0 C30.562381,0 39.377619,8.75423299 39.377619,19.5525548" id="Fill-6" fill="#FEE29C" class="hover"/>
                    <path d="M24.5648929,29.6329096 L14.8117976,29.6329096 C11.9115595,29.6329096 9.53828571,27.2760598 9.53828571,24.3951241 L9.53828571,14.7102928 C9.53828571,11.8293571 11.9115595,9.47250735 14.8117976,9.47250735 L24.5648929,9.47250735 C27.4659048,9.47250735 29.8391786,11.8293571 29.8391786,14.7102928 L29.8391786,24.3951241 C29.8391786,27.2760598 27.4659048,29.6329096 24.5648929,29.6329096 Z" id="Stroke-8" stroke="#25458D" stroke-width="2.94"/>
                    <path d="M24.4504464,19.5525548 C24.4504464,22.163763 22.3186012,24.2816234 19.6884226,24.2816234 C17.0590179,24.2816234 14.9263988,22.163763 14.9263988,19.5525548 C14.9263988,16.9413466 17.0590179,14.8234862 19.6884226,14.8234862 C22.3186012,14.8234862 24.4504464,16.9413466 24.4504464,19.5525548 Z" id="Stroke-10" stroke="#25458D" stroke-width="2.94"/>
                    <path d="M25.878744,14.906095 C25.1776726,14.906095 24.6089226,14.341281 24.6089226,13.6450613 C24.6089226,12.9488416 25.1776726,12.3840275 25.878744,12.3840275 C26.5805893,12.3840275 27.1485655,12.9488416 27.1485655,13.6450613 C27.1485655,14.341281 26.5805893,14.906095 25.878744,14.906095 Z" id="Fill-12" fill="#25458D"/>
                </g>
            </g>
        </g>
    </g>
</svg>