<svg width="40px" height="40px" viewBox="0 0 40 40" version="1.1" xmlns="http://www.w3.org/2000/svg" xmlns:xlink="http://www.w3.org/1999/xlink">
    <title>Group 4</title>
    <g id="Symbols" stroke="none" stroke-width="1" fill="none" fill-rule="evenodd">
        <g id="Footer-#18" transform="translate(-875.000000, -241.000000)" fill="#FEE29C">
            <g id="Group-25" transform="translate(705.000077, 241.000000)">
                <g id="Group-4" transform="translate(170.516988, 0.086067)">
                    <path d="M19.6880357,0 C8.81446429,0 0,8.75423299 0,19.5525548 C0,27.8357252 5.18916667,34.9170329 12.5132738,37.7664619 C12.3407143,36.2187947 12.1859524,33.8396597 12.581369,32.1513653 C12.938869,30.6252148 14.8904167,22.4319536 14.8904167,22.4319536 C14.8904167,22.4319536 14.3015476,21.260829 14.3015476,19.5295012 C14.3015476,16.8099409 15.8878571,14.7804527 17.8641667,14.7804527 C19.5433333,14.7804527 20.3550595,16.0330334 20.3550595,17.5345934 C20.3550595,19.2121295 19.2794643,21.7203648 18.7246429,24.0449394 C18.2603571,25.9914345 19.7066071,27.578293 21.6395833,27.578293 C25.1395238,27.578293 27.8292857,23.9143022 27.8292857,18.6242618 C27.8292857,13.9436058 24.4423214,10.6699899 19.6052381,10.6699899 C14.0028571,10.6699899 10.7149405,14.8426975 10.7149405,19.1552638 C10.7149405,20.8358737 11.3672619,22.6378994 12.1797619,23.6169103 C12.3407143,23.8105608 12.3647024,23.9803893 12.3167262,24.1778821 C12.167381,24.7957194 11.8354167,26.1236087 11.7696429,26.3956416 C11.68375,26.7529729 11.4841071,26.8290499 11.1119048,26.6569161 C8.65196429,25.520372 7.11440476,21.9501326 7.11440476,19.0822607 C7.11440476,12.9146453 11.6272619,7.25036765 20.1236905,7.25036765 C26.9541071,7.25036765 32.2616667,12.0831776 32.2616667,18.5428057 C32.2616667,25.2813826 27.9840476,30.7043656 22.0450595,30.7043656 C20.0501786,30.7043656 18.1744643,29.6754051 17.5322024,28.4597102 C17.5322024,28.4597102 16.5448214,32.1928619 16.3057143,33.1073227 C15.8615476,34.805607 14.661369,36.9342258 13.8589286,38.2329138 C15.701369,38.7992647 17.6583333,39.1051096 19.6880357,39.1051096 C30.562381,39.1051096 39.3768452,30.3508766 39.3768452,19.5525548 C39.3768452,8.75423299 30.562381,0 19.6880357,0" id="Fill-4" class="hover"/>
                </g>
            </g>
        </g>
    </g>
</svg>