<svg width="40px" height="40px" viewBox="0 0 40 40" version="1.1" xmlns="http://www.w3.org/2000/svg" xmlns:xlink="http://www.w3.org/1999/xlink">
    <title>Fill 22</title>
    <defs>
        <polygon id="path-twitter" points="0 0 39.1048022 0 39.1048022 39.1051096 0 39.1051096"/>
    </defs>
    <g id="Symbols" stroke="none" stroke-width="1" fill="none" fill-rule="evenodd">
        <g id="Footer-#18" transform="translate(-761.000000, -241.000000)">
            <g id="Group-25" transform="translate(705.000077, 241.000000)">
                <g id="Fill-22" transform="translate(56.703176, 0.040574)">
                    <g id="Mask" class="hover">
                        <mask id="mask-twitter" fill="white">
                            <use xlink:href="#path-twitter"/>
                        </mask>
                        <g id="Clip-20"/>
                        <path d="M39.1051096,19.5525548 C39.1051096,30.351645 30.3508766,39.1051096 19.5525548,39.1051096 C8.75423299,39.1051096 0,30.351645 0,19.5525548 C0,8.75423299 8.75423299,0 19.5525548,0 C30.3508766,0 39.1051096,8.75423299 39.1051096,19.5525548" id="Fill-19" fill="#FEE29C" mask="url(#mask-twitter)"/>
                    </g>
                    <path d="M29.9808658,12.546402 C29.2469918,12.9536828 28.3509739,13.1980513 27.5364122,13.2795075 C28.4324301,12.7093143 29.0840794,11.8132964 29.4106726,10.7535978 C28.5953424,11.2431032 27.6993245,11.6496156 26.6403943,11.8947526 C25.8258326,10.9979663 24.7669024,10.4285415 23.5450598,10.4285415 C21.1820624,10.4285415 19.2263459,12.4649458 19.2263459,15.0723117 C19.2263459,15.3973679 19.2263459,15.8054172 19.307802,16.1312419 C15.7237305,15.9683296 12.5461714,14.0940692 10.428311,11.3245594 C10.0202617,11.9762088 9.85734934,12.7907705 9.85734934,13.6867884 C9.85734934,15.3159118 10.5912233,16.7014351 11.7316097,17.5159968 C10.9985042,17.5159968 10.3468548,17.2716283 9.77666162,16.9458036 L9.77666162,17.0272598 C9.77666162,19.2265764 11.2428727,21.1008368 13.1978208,21.5895738 C12.8719961,21.67103 12.4647153,21.7524862 12.0574344,21.7524862 C11.8130659,21.7524862 11.4872412,21.7524862 11.2428727,21.67103 C11.8130659,23.5445219 13.3615016,24.8478206 15.2349935,24.8478206 C13.768014,26.0704317 11.8945221,26.8035372 9.93880551,26.8035372 C9.61374928,26.8035372 9.28715614,26.8035372 8.88064374,26.722081 C10.7541357,28.0253798 13.0349084,28.8399415 15.479362,28.8399415 C23.3821475,28.8399415 27.6993245,21.8339423 27.6993245,15.7239611 L27.6993245,15.1537679 C28.677567,14.3392062 29.4106726,13.523876 29.9808658,12.546402" fill="#25458D" class="svg-icon"/>
                </g>
            </g>
        </g>
    </g>
</svg>